<svg xmlns="http://www.w3.org/2000/svg" viewBox="0 0 128 128" role="img" aria-label="PromptBridge logo">
  <defs>
    <linearGradient id="g" x1="0" y1="0" x2="1" y2="1">
      <stop offset="0%" stop-color="#6366F1"/>
      <stop offset="50%" stop-color="#8B5CF6"/>
      <stop offset="100%" stop-color="#EC4899"/>
    </linearGradient>
  </defs>
  <rect x="8" y="8" width="112" height="112" rx="24" fill="url(#g)"/>
  <g fill="#fff" opacity="0.95">
    <path d="M36 44a8 8 0 0 1 8-8h40a8 8 0 0 1 0 16H44a8 8 0 0 1-8-8Z"/>
    <path d="M28 64a8 8 0 0 1 8-8h56a8 8 0 0 1 0 16H36a8 8 0 0 1-8-8Z"/>
    <path d="M36 84a8 8 0 0 1 8-8h26a8 8 0 0 1 0 16H44a8 8 0 0 1-8-8Z"/>
  </g>
</svg>

